<svg xmlns="http://www.w3.org/2000/svg" viewBox="0 0 1024 360">
  <g fill="#089BD2">
    <path d="M100 197l12-4 4-2 1-4V80l-1-4-4-2-12-3v-6h64v6l-14 3-3 3-1 3v112h48l2-1 1-1 1-2v-2l9-26h6v43H100v-6zM244 205a25 25 0 01-24-17c-2-3-2-6-2-10a27 27 0 018-19l8-7a53 53 0 0120-6 61 61 0 0119-1h2v-14-8l-2-5-4-2-6-1-8 2a66 66 0 00-17 9l-7 5h-3l-4-19a101 101 0 0127-8 82 82 0 0125 0c5 1 9 3 13 6 4 2 7 5 10 9 2 5 3 10 3 16v52l2 2 2 1 4 1 3-1 5-1h2v7l-4 3a59 59 0 01-13 5l-8 1-8-1-6-3-4-5-2-8c-2 4-5 7-8 9a33 33 0 01-23 8zm15-15l5-1a17 17 0 0011-7v-29l-12 1c-4 1-7 2-9 4-3 1-5 4-6 6-2 3-2 6-2 9l1 8 3 5 4 3 5 1zM373 206a138 138 0 01-20-2 88 88 0 01-22-7V75l-1-4-5-3-9-3v-5l42-9v69a40 40 0 0117-15l8-2h6c6 0 11 1 16 3l11 10c4 4 6 9 8 15a68 68 0 01-1 41c-3 7-6 13-11 18-4 5-10 8-16 11-7 3-14 5-23 5zm1-11c4 0 8-1 11-3l8-8 4-12 1-15-1-15-4-12c-2-4-4-6-7-8s-7-3-11-3h-4l-5 1-4 3-4 4v61l3 2a31 31 0 009 5h4z"/>
  </g>
  <g fill="#1A1A1A">
    <path d="M440 80l-2-3-4-3-10-3v-6h61v6l-17 4 33 82 5 15 36-96-17-5v-6h45v6l-10 4a11 11 0 00-6 6l-39 101-12 23h-14L440 80zM567 197l11-3 3-2 1-4v-61l-1-5-5-3-8-3v-4l41-8v84l1 4 4 2 9 3v6h-56v-6zm28-113a17 17 0 01-12-5 16 16 0 01-5-11l1-6a16 16 0 0116-10 17 17 0 0115 10l1 6a16 16 0 01-5 11 17 17 0 01-11 5zM679 205c-7 0-14-1-20-3a42 42 0 01-25-26 61 61 0 010-41c2-6 5-12 9-17a48 48 0 0137-15c7 0 13 1 18 3a38 38 0 0123 40 541 541 0 01-1 5h-62c0 13 3 22 8 29 5 6 13 10 24 10a43 43 0 0017-4l7-3 5-3h2v8a70 70 0 01-29 15c-4 2-9 2-13 2zm15-62l-1-12-2-10-5-6-8-2a16 16 0 00-14 8l-4 9-1 13h35zM738 120l-3-3-5-3-7-2v-6h55v6l-14 3 15 47 4 13 16-46 10-23h12l20 56 4 13 20-59-14-4v-6h38v6l-6 3-5 3-3 3-23 61-10 22h-13l-18-54-4-15-16 47-11 22h-13l-29-84z"/>
  </g>
  <path fill-rule="evenodd" clip-rule="evenodd" fill="#4CC8F4" d="M101 291c0-2 2-4 3-4h821c2 0 3 2 3 4v13c0 2-1 3-3 3H104c-1 0-3-1-3-3v-13z"/>
  <g fill="#1A1A1A">
    <path d="M131 256l-1 5-2 3-3 3-4 1-6-2-3-3-2-6v-6-6l2-6 3-4 6-1 7 2 2 8h-4v-3l-1-2-2-1-2-1-4 1-2 3-1 4a64 64 0 000 11l1 5 2 3 4 1 3-1 1-2 1-3 1-3h4zM134 243h4v3l1-1 1-2 2-1h3v4h-2-1l-2 1a6 6 0 00-2 5v15h-4v-24zM151 255a75 75 0 001 7l1 2 3 1 2-1 1-1 1-2v-2h4v3l-2 3-2 2-4 1c-3 0-6-1-7-3l-2-10v-4l2-5 2-3 5-1 4 1 3 3 1 4v5h-13zm9-3v-1-2l-1-2-1-1-2-1-3 1-1 2v2l-1 1v1h9zM168 250l2-6 6-2 5 1 2 2 1 2v17l1 1h1v2a22 22 0 01-2 1h-2l-1-1v-1l-1-2-3 3-3 1-5-2-2-5 1-5 4-2 5-2h2l1-1v-1-1c0-3-1-4-4-4l-2 1-2 1v3h-4zm12 4l-2 1h-1l-2 1-2 1-1 1-1 3 1 3 3 1h2a5 5 0 002-3l1-2v-6zM191 235h3v8h5v3h-5v16l1 2h2a9 9 0 002 0v3l-1 1h-2l-3-1-1-1-1-1v-19h-4v-3h4v-8zM202 234h4v5h-4v-5zm0 9h4v24h-4v-24zM211 243h4v3c0-2 1-3 2-3l4-1 4 1 1 2 1 2v20h-4v-17-1-2l-1-1-2-1a5 5 0 00-4 1l-1 2v19h-4v-24zM249 266l-1 4-2 4-2 1-4 1h-2l-2-1-3-2-1-3h4l1 2 3 1 3-1 1-1 1-2v-5l-3 2-3 1a6 6 0 01-5-2l-2-3a18 18 0 01-1-5 38 38 0 011-7l1-4 2-3 4-1h2l2 1 1 1 1 2v-3h4v23zm-9-21l-2 1-2 2v3a36 36 0 000 7v3l2 2 2 1 2-1 2-2 1-2a33 33 0 000-8l-1-3-2-2-2-1zM261 234h4l6 29h1l6-29h4l-8 33h-5l-8-33zM285 234h4v5h-4v-5zm0 9h4v24h-4v-24zM305 250l-1-4-3-1h-1l-1 1-1 1-1 2 1 2 1 1 2 1a124 124 0 016 2l2 2v7a7 7 0 01-5 4h-3l-5-1a7 7 0 01-3-5v-3h4v2l1 2 1 1 2 1h1l2-1 1-1v-2a4 4 0 00-1-4h-2a465 465 0 00-8-5l-1-3 1-3 2-2 2-2h3l4 1a6 6 0 014 4v3h-4zM313 234h4v5h-4v-5zm0 9h4v24h-4v-24zM321 255l1-5 1-4 3-3 4-1 5 1 2 3 2 4a30 30 0 010 10l-2 4-2 3-5 1-4-1-3-3-1-4-1-5zm9 10l3-1 1-2 1-3a38 38 0 000-8l-1-3-1-2-3-1-2 1-2 2v3a38 38 0 000 8v3l2 2 2 1zM343 243h4v3c0-2 1-3 2-3l4-1 4 1 2 2v22h-3v-17l-1-1v-2l-1-1-2-1a5 5 0 00-3 1l-2 2v19h-4v-24zM376 234h9l6 2 4 3 1 5a53 53 0 010 13l-2 5c0 2-1 3-3 4l-5 1h-10v-33zm4 30h5l4-1 2-3 1-5a46 46 0 000-9l-1-4-2-3-4-1h-5v26zM402 234h3v5h-3v-5zm0 9h3v24h-3v-24zM412 246h-4v-3h4v-3l1-5 4-1h3v3h-2l-2 1v5h4v3h-4v21h-4v-21zM424 246h-4v-3h4v-3l1-5 4-1h3v3h-2l-2 1v5h4v3h-4v21h-4v-21zM438 255a75 75 0 001 7l1 2 3 1 2-1 1-1 1-2v-2h4v3l-2 3-2 2-4 1c-3 0-6-1-7-3l-2-10v-4l2-5 2-3 5-1 4 1 3 3 1 4v5h-13zm9-3v-1-2l-1-2-1-1-2-1-3 1-1 2-1 2v2h9zM455 243h4v3l1-1 1-2 2-1h3v4h-2-1l-2 1a6 6 0 00-2 5v15h-4v-24zM472 255a75 75 0 001 7l1 2 3 1 2-1 1-1 1-2v-2h4v3l-2 3-2 2-4 1c-3 0-5-1-7-3s-2-5-2-10v-4l2-5 2-3 5-1 4 1 3 3 1 4v5h-13zm9-3v-1-2l-1-2-1-1-2-1-2 1-2 2v2l-1 1v1h9zM490 243h3v3l3-3 3-1 4 1 2 2 1 2v20h-4v-17-1-2l-2-1-2-1a5 5 0 00-3 1l-1 2-1 2v17h-3v-24zM512 235h4v8h4v3h-4v18h2a9 9 0 002 0v3l-1 1h-2l-2-1-2-1-1-1v-19h-4v-3h4v-8zM523 234h4v33h-4v-33zM530 243h4l5 19h1l4-19h4l-7 26-1 2-1 3-2 1h-3a24 24 0 01-2 0v-3h4l1-2 1-2-8-25z"/>
  </g>
  <path fill-rule="evenodd" clip-rule="evenodd" fill="#F1EB60" d="M574 72c0-12 9-22 20-22 12 0 21 10 21 22s-9 22-21 22c-11 0-20-10-20-22z"/>
</svg>
