<svg xmlns="http://www.w3.org/2000/svg" width="1024" height="1024" xml:space="preserve"><path d="M598.036 803.286c0 39.696-.062 79.392.022 119.085a13240.154 13240.154 0 0 0 .127 36.657c.008 1.77.047 3.585-.629 5.253-1.031 2.535-3.563 3.491-6.062 4.006-19.096 3.918-38.582 6.48-57.991 8.206-38.446 3.419-77.424 2.697-115.636-2.916-33.743-4.957-67.076-14.559-96.915-31.347-23.959-13.48-45.145-31.554-61.893-53.382-17.758-23.146-30.298-49.933-38.57-77.831-10.816-36.48-14.05-74.616-14.775-112.509-.178-9.361-.56-18.84-.165-28.198.112-2.633 1.002-4.827 3.809-5.356 1.911-.362 3.943-.175 5.876-.172l7.798.019c19.997.042 39.995.071 59.991.074a23993.186 23993.186 0 0 0 74.99-.096c2.357-.008 4.726-.083 7.082-.015 1.416.041 3.025.275 4.073 1.325 1.792 1.797 1.255 5.182 1.245 7.459-.022 4.938-.027 9.877.013 14.813.263 32.463 1.76 66.464 16.884 95.904 11.507 22.403 30.043 40.557 52.829 51.335 25.131 11.887 54.455 14.844 81.778 10.592 14.137-2.198 27.889-6.729 40.343-13.812 6.313-3.592 12.265-7.804 17.787-12.518a126.358 126.358 0 0 0 8.279-7.753 135.466 135.466 0 0 0 5.704-6.222c.487-.563.969-1.437 1.668-1.756.752-.338 1.573-.535 2.338-.845 0 52.902-1.681.678 0 0zm-13.893-580.647c-6.326-12.735-16.414-23.212-28.344-31-18.092-11.811-40.131-17.862-61.622-18.53-21.267-.661-42.869 4.12-61.221 15.073-19.916 11.887-34.537 30.625-42.426 52.336-4.836 13.31-7.355 27.542-7.983 41.67-.612 13.778.873 27.674 5.055 40.844 4.09 12.882 10.729 24.839 19.295 35.281 9.808 11.955 21.888 21.57 34.813 29.95 30.758 19.943 65.069 32.564 99.306 45.073 9.278 3.39 18.544 6.813 27.826 10.189 4.643 1.689 9.287 3.365 13.94 5.021 3.764 1.339 8.102 2.283 11.497 4.453 2.378 1.519 3.537 3.878 3.82 6.64.471 4.612.064 9.433.049 14.066-.033 9.994-.059 19.988-.077 29.981-.074 39.932-.048 79.864-.034 119.797l.002 14.948.001 7.172c0 1.087.382 2.386-.735 2.953-.914.463-1.521-.304-2.049-.945a139.38 139.38 0 0 0-16.939-17.34c-11.982-10.312-25.604-18.539-39.894-25.229-15.647-7.326-32.09-12.69-48.44-18.192-18.279-6.15-36.61-12.154-54.831-18.481-34.731-12.06-69.651-24.986-101.532-43.523-28.927-16.819-55.396-38.526-74.701-66.068-18.068-25.777-29.252-55.654-34.772-86.536-6.721-37.603-8.256-76.636-3.242-114.537 4.122-31.151 12.628-62.044 27.199-89.987 12.003-23.016 28.166-43.727 47.801-60.726 20.13-17.429 43.522-30.75 68.251-40.483 32.807-12.913 67.811-19.861 102.914-22.371 19.042-1.362 38.163-1.431 57.229-.57 19.331.874 38.618 2.532 57.701 5.795 2.302.394 4.6.805 6.896 1.231 1.971.367 4.092.578 5.953 1.372 2.671 1.14 3.268 3.653 3.264 6.339a59972.164 59972.164 0 0 0-.076 89.979c-.012 38.391-.002 76.781-.002 115.172-6.292-31.443-7.397-27.739-13.892-40.817z" fill-rule="evenodd" clip-rule="evenodd" fill="#0B9BD2"/><path fill-rule="evenodd" clip-rule="evenodd" fill="#50C8F4" d="M656.345 454.157h157.794V969.36H656.345z"/><path fill-rule="evenodd" clip-rule="evenodd" fill="#F1EC60" d="M651 237h168v167.542H651z"/><path fill-rule="evenodd" clip-rule="evenodd" fill="#FEFDF1" d="M655.604 241.604h158.793v158.335H655.604z"/><path fill-rule="evenodd" clip-rule="evenodd" fill="#F1EC60" d="M660.207 246.207h149.586v149.128H660.207z"/><path fill-rule="evenodd" clip-rule="evenodd" fill="#FEFDF1" d="M664.811 250.811H805.19v139.921H664.811z"/><path fill-rule="evenodd" clip-rule="evenodd" fill="#F1EC60" d="M669.414 255.414h131.172v130.714H669.414z"/><path fill-rule="evenodd" clip-rule="evenodd" fill="#FEFDF1" d="M674.013 260.011h121.97v121.514h-121.97z"/><path fill-rule="evenodd" clip-rule="evenodd" fill="#F1EC60" d="M678.615 264.614h112.764v112.307H678.615z"/><path fill-rule="evenodd" clip-rule="evenodd" fill="#FEFDF1" d="M683.221 269.218h103.555v103.1H683.221z"/><path fill-rule="evenodd" clip-rule="evenodd" fill="#F1EC60" d="M687.828 273.821h94.344v93.894h-94.344z"/><path fill-rule="evenodd" clip-rule="evenodd" fill="#FEFDF1" d="M692.432 278.425h85.138v84.693h-85.138z"/><path fill-rule="evenodd" clip-rule="evenodd" fill="#F1EC60" d="M697.028 283.028h75.943v75.486h-75.943z"/><path fill-rule="evenodd" clip-rule="evenodd" fill="#FEFDF1" d="M701.625 287.631h66.75v66.279h-66.75z"/><path fill-rule="evenodd" clip-rule="evenodd" fill="#F1EC60" d="M706.229 292.235h57.543v57.073h-57.543z"/><path fill-rule="evenodd" clip-rule="evenodd" fill="#FEFDF1" d="M710.832 296.838h48.336v47.866h-48.336z"/><path fill-rule="evenodd" clip-rule="evenodd" fill="#F1EC60" d="M715.436 301.436h39.129v38.665h-39.129z"/><path fill-rule="evenodd" clip-rule="evenodd" fill="#FEFDF1" d="M720.039 306.039h29.922v29.458h-29.922z"/><path fill-rule="evenodd" clip-rule="evenodd" fill="#F1EC60" d="M724.643 310.642h20.715v20.251h-20.715z"/><path fill-rule="evenodd" clip-rule="evenodd" fill="#FBFBEC" d="M728.788 314.324h12.424v12.888h-12.424z"/></svg>