<?xml version="1.0" encoding="utf-8"?>
<!-- Generator: Adobe Illustrator 16.0.0, SVG Export Plug-In . SVG Version: 6.00 Build 0)  -->
<!DOCTYPE svg PUBLIC "-//W3C//DTD SVG 1.1//EN" "http://www.w3.org/Graphics/SVG/1.1/DTD/svg11.dtd">
<svg version="1.1" id="Layer_1" xmlns="http://www.w3.org/2000/svg" xmlns:xlink="http://www.w3.org/1999/xlink" x="0px" y="0px"
	 viewBox="0 0 1024 1024" enable-background="new 0 0 1024 1024" xml:space="preserve">
<g>
	<path fill-rule="evenodd" clip-rule="evenodd" fill="#0B9BD2" d="M598.036,803.286c0,39.696-0.062,79.392,0.022,119.085
		c0.021,9.856,0.051,19.711,0.094,29.565c0.01,2.364,0.021,4.729,0.033,7.092c0.008,1.77,0.047,3.585-0.629,5.253
		c-1.031,2.535-3.563,3.491-6.062,4.006c-19.096,3.918-38.582,6.48-57.991,8.206c-38.446,3.419-77.424,2.697-115.636-2.916
		c-33.743-4.957-67.076-14.559-96.915-31.347c-23.959-13.48-45.145-31.554-61.893-53.382c-17.758-23.146-30.298-49.933-38.57-77.831
		c-10.816-36.48-14.05-74.616-14.775-112.509c-0.178-9.361-0.56-18.84-0.165-28.198c0.112-2.633,1.002-4.827,3.809-5.356
		c1.911-0.362,3.943-0.175,5.876-0.172c2.599,0.006,5.199,0.013,7.798,0.019c19.997,0.042,39.995,0.071,59.991,0.074
		c19.998,0.005,39.995-0.012,59.992-0.057c4.999-0.012,9.999-0.025,14.998-0.039c2.357-0.008,4.726-0.083,7.082-0.015
		c1.416,0.041,3.025,0.275,4.073,1.325c1.792,1.797,1.255,5.182,1.245,7.459c-0.022,4.938-0.027,9.877,0.013,14.813
		c0.263,32.463,1.76,66.464,16.884,95.904c11.507,22.403,30.043,40.557,52.829,51.335c25.131,11.887,54.455,14.844,81.778,10.592
		c14.137-2.198,27.889-6.729,40.343-13.812c6.313-3.592,12.265-7.804,17.787-12.518c2.876-2.457,5.636-5.049,8.279-7.753
		c1.304-1.337,2.579-2.699,3.826-4.088c0.634-0.706,1.259-1.416,1.878-2.134c0.487-0.563,0.969-1.437,1.668-1.756
		C596.45,803.793,597.271,803.596,598.036,803.286C598.036,856.188,596.355,803.964,598.036,803.286z"/>
	<path fill-rule="evenodd" clip-rule="evenodd" fill="#0B9BD2" d="M584.143,222.639c-6.326-12.735-16.414-23.212-28.344-31
		c-18.092-11.811-40.131-17.862-61.622-18.53c-21.267-0.661-42.869,4.12-61.221,15.073c-19.916,11.887-34.537,30.625-42.426,52.336
		c-4.836,13.31-7.355,27.542-7.983,41.67c-0.612,13.778,0.873,27.674,5.055,40.844c4.09,12.882,10.729,24.839,19.295,35.281
		c9.808,11.955,21.888,21.57,34.813,29.95c30.758,19.943,65.069,32.564,99.306,45.073c9.278,3.39,18.544,6.813,27.826,10.189
		c4.643,1.689,9.287,3.365,13.94,5.021c3.764,1.339,8.102,2.283,11.497,4.453c2.378,1.519,3.537,3.878,3.82,6.64
		c0.471,4.612,0.064,9.433,0.049,14.066c-0.033,9.994-0.059,19.988-0.077,29.981c-0.074,39.932-0.048,79.864-0.034,119.797
		c0,4.982,0.001,9.965,0.002,14.948c0,2.39,0.001,4.781,0.001,7.172c0,1.087,0.382,2.386-0.735,2.953
		c-0.914,0.463-1.521-0.304-2.049-0.945c-5.125-6.262-10.807-12.062-16.939-17.34c-11.982-10.312-25.604-18.539-39.894-25.229
		c-15.647-7.326-32.09-12.69-48.44-18.192c-18.279-6.15-36.61-12.154-54.831-18.481c-34.731-12.06-69.651-24.986-101.532-43.523
		c-28.927-16.819-55.396-38.526-74.701-66.068c-18.068-25.777-29.252-55.654-34.772-86.536
		c-6.721-37.603-8.256-76.636-3.242-114.537c4.122-31.151,12.628-62.044,27.199-89.987c12.003-23.016,28.166-43.727,47.801-60.726
		c20.13-17.429,43.522-30.75,68.251-40.483c32.807-12.913,67.811-19.861,102.914-22.371c19.042-1.362,38.163-1.431,57.229-0.57
		c19.331,0.874,38.618,2.532,57.701,5.795c2.302,0.394,4.6,0.805,6.896,1.231c1.971,0.367,4.092,0.578,5.953,1.372
		c2.671,1.14,3.268,3.653,3.264,6.339c-0.016,9.998-0.029,19.995-0.04,29.993c-0.021,19.995-0.032,39.99-0.036,59.986
		c-0.012,38.391-0.002,76.781-0.002,115.172C591.743,232.013,590.638,235.717,584.143,222.639z"/>
</g>
<rect x="656.345" y="454.157" fill-rule="evenodd" clip-rule="evenodd" fill="#50C8F4" width="157.794" height="515.203"/>
<g>
	<g>
		<rect x="651" y="237" fill-rule="evenodd" clip-rule="evenodd" fill="#F1EC60" width="168" height="167.542"/>
	</g>
	<g>
		<rect x="655.604" y="241.604" fill-rule="evenodd" clip-rule="evenodd" fill="#FEFDF1" width="158.793" height="158.335"/>
	</g>
	<g>
		<rect x="660.207" y="246.207" fill-rule="evenodd" clip-rule="evenodd" fill="#F1EC60" width="149.586" height="149.128"/>
	</g>
	<g>
		<rect x="664.811" y="250.811" fill-rule="evenodd" clip-rule="evenodd" fill="#FEFDF1" width="140.379" height="139.921"/>
	</g>
	<g>
		<rect x="669.414" y="255.414" fill-rule="evenodd" clip-rule="evenodd" fill="#F1EC60" width="131.172" height="130.714"/>
	</g>
	<g>
		<rect x="674.013" y="260.011" fill-rule="evenodd" clip-rule="evenodd" fill="#FEFDF1" width="121.97" height="121.514"/>
	</g>
	<g>
		<rect x="678.615" y="264.614" fill-rule="evenodd" clip-rule="evenodd" fill="#F1EC60" width="112.764" height="112.307"/>
	</g>
	<g>
		<rect x="683.221" y="269.218" fill-rule="evenodd" clip-rule="evenodd" fill="#FEFDF1" width="103.555" height="103.1"/>
	</g>
	<g>
		<rect x="687.828" y="273.821" fill-rule="evenodd" clip-rule="evenodd" fill="#F1EC60" width="94.344" height="93.894"/>
	</g>
	<g>
		<rect x="692.432" y="278.425" fill-rule="evenodd" clip-rule="evenodd" fill="#FEFDF1" width="85.138" height="84.693"/>
	</g>
	<g>
		<rect x="697.028" y="283.028" fill-rule="evenodd" clip-rule="evenodd" fill="#F1EC60" width="75.943" height="75.486"/>
	</g>
	<g>
		<rect x="701.625" y="287.631" fill-rule="evenodd" clip-rule="evenodd" fill="#FEFDF1" width="66.75" height="66.279"/>
	</g>
	<g>
		<rect x="706.229" y="292.235" fill-rule="evenodd" clip-rule="evenodd" fill="#F1EC60" width="57.543" height="57.073"/>
	</g>
	<g>
		<rect x="710.832" y="296.838" fill-rule="evenodd" clip-rule="evenodd" fill="#FEFDF1" width="48.336" height="47.866"/>
	</g>
	<g>
		<rect x="715.436" y="301.436" fill-rule="evenodd" clip-rule="evenodd" fill="#F1EC60" width="39.129" height="38.665"/>
	</g>
	<g>
		<rect x="720.039" y="306.039" fill-rule="evenodd" clip-rule="evenodd" fill="#FEFDF1" width="29.922" height="29.458"/>
	</g>
	<g>
		<rect x="724.643" y="310.642" fill-rule="evenodd" clip-rule="evenodd" fill="#F1EC60" width="20.715" height="20.251"/>
	</g>
	<g>
		<rect x="728.788" y="314.324" fill-rule="evenodd" clip-rule="evenodd" fill="#FBFBEC" width="12.424" height="12.888"/>
	</g>
</g>
<g>
</g>
<g>
</g>
<g>
</g>
<g>
</g>
<g>
</g>
<g>
</g>
</svg>
